# xmcd
#
# Track frame offsets:
#	150
#	14492
#	29965
#	46465
#	64182
#	79115
#	93872
#	106467
#
# Disc length: 1589 seconds
# Revision: 5
# Processed by: cddbd v1.5.2PL0 Copyright (c) Steve Scherf et al.
# Submitted via: dBpowerAMP V12.0
#
DISCID=68063308
DTITLE=Various Artist - Vince Gill And Friends
DYEAR=1998
DGENRE=Country
TTITLE0=Vince Gill with Janis Oliver and Herb Pedersen - Turn Me Loose
TTITLE1=Vince Gill with Emmylou Harris - What If I Say Goodbye
TTITLE2=Vince Gill with Rodney Crowell and Herb Pedersen - Oklahoma Borderline
TTITLE3=Vince Gill with Emmylou Harris and Bonnie Raitt - The Way Back Home
TTITLE4=Vince Gill with Bonnie Raitt - Let's Do Something
TTITLE5=Vince Gill with Emmylou Harris and Carl Jackson - Oh Carolina
TTITLE6=Vince Gill with Janis Olive - Don't Say That You Love Me
TTITLE7=Vince Gill with Sweethearts Of The Rodeo - Everybody's Sweetheart
EXTD=
EXTT0=
EXTT1=
EXTT2=
EXTT3=
EXTT4=
EXTT5=
EXTT6=
EXTT7=
PLAYORDER=
